<svg xmlns="http://www.w3.org/2000/svg" xmlns:xlink="http://www.w3.org/1999/xlink" width="500" zoomAndPan="magnify" viewBox="0 0 375 374.999991" height="500" preserveAspectRatio="xMidYMid meet" version="1.0"><defs><g/><clipPath id="5968f3b429"><path d="M 152.40625 107.617188 L 179 107.617188 L 179 182 L 152.40625 182 Z M 152.40625 107.617188 " clip-rule="nonzero"/></clipPath><clipPath id="3f37e5a967"><path d="M 182 122 L 209 122 L 209 196.117188 L 182 196.117188 Z M 182 122 " clip-rule="nonzero"/></clipPath><clipPath id="704e459d94"><path d="M 217 110 L 222.90625 110 L 222.90625 116 L 217 116 Z M 217 110 " clip-rule="nonzero"/></clipPath></defs><g clip-path="url(#5968f3b429)"><path fill="#393536" d="M 152.429688 149.226562 L 152.429688 139.988281 C 154.300781 139.886719 155.714844 139.605469 156.664062 139.144531 C 157.613281 138.679688 158.433594 137.90625 159.125 136.816406 C 159.820312 135.722656 160.292969 134.359375 160.550781 132.714844 C 160.753906 131.484375 160.859375 129.339844 160.859375 126.285156 C 160.859375 121.308594 161.089844 117.835938 161.550781 115.875 C 162.015625 113.910156 162.847656 112.332031 164.054688 111.140625 C 165.257812 109.945312 167.015625 109.003906 169.328125 108.3125 C 170.890625 107.847656 173.355469 107.617188 176.71875 107.617188 L 178.757812 107.617188 L 178.757812 116.816406 C 175.910156 116.816406 174.082031 116.980469 173.273438 117.300781 C 172.464844 117.621094 171.867188 118.105469 171.484375 118.761719 C 171.097656 119.414062 170.90625 120.539062 170.90625 122.128906 C 170.90625 123.746094 170.789062 126.8125 170.558594 131.328125 C 170.429688 133.871094 170.097656 135.929688 169.558594 137.507812 C 169.019531 139.085938 168.332031 140.386719 167.5 141.414062 C 166.664062 142.441406 165.386719 143.507812 163.667969 144.609375 C 165.183594 145.480469 166.421875 146.5 167.382812 147.667969 C 168.347656 148.835938 169.082031 150.253906 169.597656 151.921875 C 170.109375 153.589844 170.441406 155.824219 170.597656 158.621094 C 170.777344 162.878906 170.867188 165.601562 170.867188 166.78125 C 170.867188 168.472656 171.070312 169.652344 171.484375 170.320312 C 171.894531 170.988281 172.515625 171.496094 173.347656 171.84375 C 174.183594 172.1875 175.984375 172.363281 178.757812 172.363281 L 178.757812 181.601562 L 176.71875 181.601562 C 173.253906 181.601562 170.597656 181.324219 168.75 180.773438 C 166.902344 180.21875 165.34375 179.304688 164.074219 178.019531 C 162.800781 176.738281 161.949219 175.152344 161.511719 173.265625 C 161.078125 171.378906 160.859375 168.410156 160.859375 164.355469 C 160.859375 159.632812 160.652344 156.566406 160.242188 155.15625 C 159.679688 153.101562 158.824219 151.632812 157.683594 150.75 C 156.539062 149.863281 154.789062 149.355469 152.429688 149.226562 " fill-opacity="1" fill-rule="nonzero"/></g><path fill="#5e17eb" d="M 210.824219 126.78125 L 204.800781 126.78125 L 204.800781 120.757812 L 210.824219 120.757812 L 210.824219 126.78125 " fill-opacity="1" fill-rule="nonzero"/><path fill="#5e17eb" d="M 209.402344 138.832031 L 204.800781 138.832031 L 204.800781 134.230469 L 209.402344 134.230469 L 209.402344 138.832031 " fill-opacity="1" fill-rule="nonzero"/><g clip-path="url(#3f37e5a967)"><path fill="#5e17eb" d="M 191.875 131.386719 L 191.875 126.78125 L 196.480469 126.78125 L 196.480469 131.386719 Z M 203.585938 152.90625 C 202.429688 152.019531 201.570312 150.550781 201.007812 148.5 C 200.695312 147.339844 200.511719 145.121094 200.449219 141.84375 L 196.480469 141.84375 L 196.480469 135.820312 L 200.363281 135.820312 C 200.265625 133.496094 200.0625 131.6875 199.753906 130.390625 C 199.304688 128.503906 198.453125 126.910156 197.195312 125.617188 C 195.9375 124.320312 194.386719 123.402344 192.539062 122.863281 C 190.691406 122.324219 188.035156 122.054688 184.570312 122.054688 L 182.53125 122.054688 L 182.53125 131.253906 C 185.429688 131.253906 187.296875 131.429688 188.128906 131.773438 C 188.964844 132.121094 189.542969 132.617188 189.863281 133.257812 C 190.183594 133.898438 190.355469 135.179688 190.382812 137.105469 C 190.511719 143.210938 190.714844 147.164062 191 148.960938 C 191.433594 151.578125 192.253906 153.734375 193.460938 155.425781 C 194.332031 156.609375 195.71875 157.816406 197.621094 159.046875 C 196.15625 159.894531 194.957031 160.875 194.019531 161.992188 C 193.082031 163.105469 192.332031 164.46875 191.769531 166.070312 C 191.203125 167.675781 190.855469 169.8125 190.730469 172.480469 C 190.523438 176.894531 190.414062 179.882812 190.402344 181.449219 C 190.386719 183.011719 190.183594 184.125 189.785156 184.777344 C 189.386719 185.433594 188.765625 185.933594 187.917969 186.28125 C 187.070312 186.625 185.273438 186.800781 182.53125 186.800781 L 182.53125 196.039062 L 184.570312 196.039062 C 187.929688 196.039062 190.394531 195.804688 191.960938 195.34375 C 194.296875 194.652344 196.066406 193.707031 197.273438 192.515625 C 198.476562 191.320312 199.304688 189.738281 199.753906 187.761719 C 200.203125 185.785156 200.429688 182.308594 200.429688 177.328125 C 200.429688 174.300781 200.53125 172.171875 200.738281 170.941406 C 201.019531 169.296875 201.5 167.929688 202.179688 166.839844 C 202.859375 165.75 203.675781 164.972656 204.625 164.511719 C 205.574219 164.050781 206.984375 163.769531 208.859375 163.664062 L 208.859375 154.425781 C 206.496094 154.300781 204.738281 153.792969 203.585938 152.90625 " fill-opacity="1" fill-rule="nonzero"/></g><g clip-path="url(#704e459d94)"><path fill="#5e17eb" d="M 222.574219 115.082031 L 217.96875 115.082031 L 217.96875 110.480469 L 222.574219 110.480469 L 222.574219 115.082031 " fill-opacity="1" fill-rule="nonzero"/></g><path fill="#5e17eb" d="M 199.492188 120.757812 L 190.898438 120.757812 L 190.898438 112.164062 L 199.492188 112.164062 L 199.492188 120.757812 " fill-opacity="1" fill-rule="nonzero"/><g fill="#393536" fill-opacity="1"><g transform="translate(37.785377, 239.115722)"><g><path d="M 13.59375 0.5 C 11.820312 0.5 10.175781 0.191406 8.65625 -0.421875 C 7.144531 -1.035156 5.835938 -1.894531 4.734375 -3 C 3.640625 -4.101562 2.785156 -5.410156 2.171875 -6.921875 C 1.554688 -8.429688 1.25 -10.078125 1.25 -11.859375 C 1.25 -13.628906 1.5625 -15.269531 2.1875 -16.78125 C 2.8125 -18.300781 3.671875 -19.617188 4.765625 -20.734375 C 5.867188 -21.847656 7.171875 -22.71875 8.671875 -23.34375 C 10.179688 -23.96875 11.8125 -24.28125 13.5625 -24.28125 C 15.40625 -24.28125 17.117188 -23.925781 18.703125 -23.21875 C 20.296875 -22.507812 21.671875 -21.488281 22.828125 -20.15625 L 19.203125 -16.65625 C 18.515625 -17.457031 17.703125 -18.085938 16.765625 -18.546875 C 15.835938 -19.003906 14.816406 -19.234375 13.703125 -19.234375 C 12.679688 -19.234375 11.742188 -19.050781 10.890625 -18.6875 C 10.046875 -18.320312 9.304688 -17.8125 8.671875 -17.15625 C 8.046875 -16.507812 7.5625 -15.734375 7.21875 -14.828125 C 6.875 -13.929688 6.703125 -12.960938 6.703125 -11.921875 C 6.703125 -10.859375 6.878906 -9.875 7.234375 -8.96875 C 7.597656 -8.070312 8.09375 -7.289062 8.71875 -6.625 C 9.34375 -5.96875 10.09375 -5.457031 10.96875 -5.09375 C 11.84375 -4.726562 12.800781 -4.546875 13.84375 -4.546875 C 14.976562 -4.546875 16.019531 -4.78125 16.96875 -5.25 C 17.914062 -5.726562 18.722656 -6.367188 19.390625 -7.171875 L 23 -3.734375 C 21.863281 -2.378906 20.492188 -1.332031 18.890625 -0.59375 C 17.296875 0.132812 15.53125 0.5 13.59375 0.5 Z M 13.59375 0.5 "/></g></g></g><g fill="#393536" fill-opacity="1"><g transform="translate(68.136233, 239.115722)"><g><path d="M 9.734375 -24.21875 L 13.03125 -24.21875 L 22.40625 0 L 16.9375 0 L 15.484375 -4.015625 L 7.28125 -4.015625 L 5.859375 0 L 0.359375 0 Z M 13.875 -8.484375 L 11.390625 -15.484375 L 8.875 -8.484375 Z M 13.875 -8.484375 "/></g></g></g><g fill="#393536" fill-opacity="1"><g transform="translate(97.528637, 239.115722)"><g><path d="M 2.65625 -23.78125 L 7.84375 -23.78125 L 7.84375 -4.859375 L 16.078125 -4.859375 L 16.078125 0 L 2.65625 0 Z M 2.65625 -23.78125 "/></g></g></g><g fill="#393536" fill-opacity="1"><g transform="translate(121.312344, 239.115722)"><g><path d="M 2.65625 -23.78125 L 12.0625 -23.78125 C 13.84375 -23.78125 15.484375 -23.476562 16.984375 -22.875 C 18.484375 -22.269531 19.785156 -21.441406 20.890625 -20.390625 C 21.992188 -19.335938 22.859375 -18.082031 23.484375 -16.625 C 24.109375 -15.175781 24.421875 -13.597656 24.421875 -11.890625 C 24.421875 -10.191406 24.109375 -8.617188 23.484375 -7.171875 C 22.859375 -5.722656 21.992188 -4.46875 20.890625 -3.40625 C 19.785156 -2.34375 18.484375 -1.507812 16.984375 -0.90625 C 15.484375 -0.300781 13.84375 0 12.0625 0 L 2.65625 0 Z M 12.109375 -4.859375 C 13.097656 -4.859375 14.003906 -5.035156 14.828125 -5.390625 C 15.660156 -5.742188 16.382812 -6.234375 17 -6.859375 C 17.613281 -7.492188 18.09375 -8.234375 18.4375 -9.078125 C 18.78125 -9.929688 18.953125 -10.867188 18.953125 -11.890625 C 18.953125 -12.910156 18.78125 -13.84375 18.4375 -14.6875 C 18.09375 -15.539062 17.613281 -16.28125 17 -16.90625 C 16.382812 -17.539062 15.660156 -18.035156 14.828125 -18.390625 C 14.003906 -18.742188 13.097656 -18.921875 12.109375 -18.921875 L 7.84375 -18.921875 L 7.84375 -4.859375 Z M 12.109375 -4.859375 "/></g></g></g><g fill="#393536" fill-opacity="1"><g transform="translate(153.61559, 239.115722)"><g><path d="M 9.734375 -24.21875 L 13.03125 -24.21875 L 22.40625 0 L 16.9375 0 L 15.484375 -4.015625 L 7.28125 -4.015625 L 5.859375 0 L 0.359375 0 Z M 13.875 -8.484375 L 11.390625 -15.484375 L 8.875 -8.484375 Z M 13.875 -8.484375 "/></g></g></g><g fill="#393536" fill-opacity="1"><g transform="translate(183.007994, 239.115722)"><g><path d="M 9.046875 0.640625 C 7.203125 0.640625 5.546875 0.226562 4.078125 -0.59375 C 2.609375 -1.425781 1.425781 -2.625 0.53125 -4.1875 L 4.15625 -7.203125 C 5.382812 -5.003906 7.003906 -3.90625 9.015625 -3.90625 C 9.910156 -3.90625 10.632812 -4.125 11.1875 -4.5625 C 11.75 -5 12.03125 -5.570312 12.03125 -6.28125 C 12.03125 -6.945312 11.757812 -7.519531 11.21875 -8 C 10.675781 -8.488281 9.691406 -9.039062 8.265625 -9.65625 C 6.066406 -10.625 4.460938 -11.707031 3.453125 -12.90625 C 2.453125 -14.101562 1.953125 -15.53125 1.953125 -17.1875 C 1.953125 -18.226562 2.140625 -19.1875 2.515625 -20.0625 C 2.898438 -20.9375 3.429688 -21.6875 4.109375 -22.3125 C 4.796875 -22.9375 5.613281 -23.421875 6.5625 -23.765625 C 7.507812 -24.109375 8.550781 -24.28125 9.6875 -24.28125 C 12.695312 -24.28125 15.242188 -22.988281 17.328125 -20.40625 L 13.875 -17.28125 C 13.21875 -18.164062 12.554688 -18.8125 11.890625 -19.21875 C 11.234375 -19.632812 10.5 -19.84375 9.6875 -19.84375 C 8.90625 -19.84375 8.285156 -19.644531 7.828125 -19.25 C 7.367188 -18.863281 7.140625 -18.335938 7.140625 -17.671875 C 7.140625 -16.941406 7.445312 -16.335938 8.0625 -15.859375 C 8.675781 -15.390625 9.597656 -14.882812 10.828125 -14.34375 C 13.078125 -13.34375 14.703125 -12.234375 15.703125 -11.015625 C 16.710938 -9.796875 17.21875 -8.359375 17.21875 -6.703125 C 17.21875 -5.617188 17.015625 -4.625 16.609375 -3.71875 C 16.210938 -2.820312 15.65625 -2.046875 14.9375 -1.390625 C 14.226562 -0.742188 13.367188 -0.242188 12.359375 0.109375 C 11.359375 0.460938 10.253906 0.640625 9.046875 0.640625 Z M 9.046875 0.640625 "/></g></g></g><g fill="#393536" fill-opacity="1"><g transform="translate(208.211621, 239.115722)"><g/></g></g><g fill="#393536" fill-opacity="1"><g transform="translate(222.659333, 239.115722)"><g><path d="M 13.59375 0.5 C 11.820312 0.5 10.175781 0.191406 8.65625 -0.421875 C 7.144531 -1.035156 5.835938 -1.894531 4.734375 -3 C 3.640625 -4.101562 2.785156 -5.410156 2.171875 -6.921875 C 1.554688 -8.429688 1.25 -10.078125 1.25 -11.859375 C 1.25 -13.628906 1.5625 -15.269531 2.1875 -16.78125 C 2.8125 -18.300781 3.671875 -19.617188 4.765625 -20.734375 C 5.867188 -21.847656 7.171875 -22.71875 8.671875 -23.34375 C 10.179688 -23.96875 11.8125 -24.28125 13.5625 -24.28125 C 15.40625 -24.28125 17.117188 -23.925781 18.703125 -23.21875 C 20.296875 -22.507812 21.671875 -21.488281 22.828125 -20.15625 L 19.203125 -16.65625 C 18.515625 -17.457031 17.703125 -18.085938 16.765625 -18.546875 C 15.835938 -19.003906 14.816406 -19.234375 13.703125 -19.234375 C 12.679688 -19.234375 11.742188 -19.050781 10.890625 -18.6875 C 10.046875 -18.320312 9.304688 -17.8125 8.671875 -17.15625 C 8.046875 -16.507812 7.5625 -15.734375 7.21875 -14.828125 C 6.875 -13.929688 6.703125 -12.960938 6.703125 -11.921875 C 6.703125 -10.859375 6.878906 -9.875 7.234375 -8.96875 C 7.597656 -8.070312 8.09375 -7.289062 8.71875 -6.625 C 9.34375 -5.96875 10.09375 -5.457031 10.96875 -5.09375 C 11.84375 -4.726562 12.800781 -4.546875 13.84375 -4.546875 C 14.976562 -4.546875 16.019531 -4.78125 16.96875 -5.25 C 17.914062 -5.726562 18.722656 -6.367188 19.390625 -7.171875 L 23 -3.734375 C 21.863281 -2.378906 20.492188 -1.332031 18.890625 -0.59375 C 17.296875 0.132812 15.53125 0.5 13.59375 0.5 Z M 13.59375 0.5 "/></g></g></g><g fill="#393536" fill-opacity="1"><g transform="translate(253.0102, 239.115722)"><g><path d="M 13.53125 0.5 C 11.78125 0.5 10.15625 0.179688 8.65625 -0.453125 C 7.164062 -1.097656 5.867188 -1.972656 4.765625 -3.078125 C 3.671875 -4.191406 2.8125 -5.5 2.1875 -7 C 1.5625 -8.507812 1.25 -10.140625 1.25 -11.890625 C 1.25 -13.640625 1.5625 -15.269531 2.1875 -16.78125 C 2.8125 -18.300781 3.671875 -19.617188 4.765625 -20.734375 C 5.867188 -21.847656 7.164062 -22.71875 8.65625 -23.34375 C 10.15625 -23.96875 11.78125 -24.28125 13.53125 -24.28125 C 15.25 -24.28125 16.859375 -23.96875 18.359375 -23.34375 C 19.867188 -22.71875 21.171875 -21.847656 22.265625 -20.734375 C 23.367188 -19.617188 24.234375 -18.300781 24.859375 -16.78125 C 25.492188 -15.269531 25.8125 -13.640625 25.8125 -11.890625 C 25.8125 -10.140625 25.492188 -8.507812 24.859375 -7 C 24.234375 -5.5 23.367188 -4.191406 22.265625 -3.078125 C 21.171875 -1.972656 19.867188 -1.097656 18.359375 -0.453125 C 16.859375 0.179688 15.25 0.5 13.53125 0.5 Z M 13.53125 -4.546875 C 14.519531 -4.546875 15.425781 -4.726562 16.25 -5.09375 C 17.082031 -5.457031 17.800781 -5.96875 18.40625 -6.625 C 19.007812 -7.289062 19.484375 -8.070312 19.828125 -8.96875 C 20.171875 -9.875 20.34375 -10.847656 20.34375 -11.890625 C 20.34375 -12.929688 20.171875 -13.898438 19.828125 -14.796875 C 19.484375 -15.703125 19.007812 -16.476562 18.40625 -17.125 C 17.800781 -17.78125 17.082031 -18.296875 16.25 -18.671875 C 15.425781 -19.046875 14.519531 -19.234375 13.53125 -19.234375 C 12.53125 -19.234375 11.613281 -19.046875 10.78125 -18.671875 C 9.957031 -18.296875 9.242188 -17.78125 8.640625 -17.125 C 8.035156 -16.476562 7.5625 -15.703125 7.21875 -14.796875 C 6.875 -13.898438 6.703125 -12.929688 6.703125 -11.890625 C 6.703125 -10.847656 6.875 -9.875 7.21875 -8.96875 C 7.5625 -8.070312 8.035156 -7.300781 8.640625 -6.65625 C 9.242188 -6.007812 9.957031 -5.492188 10.78125 -5.109375 C 11.613281 -4.734375 12.53125 -4.546875 13.53125 -4.546875 Z M 13.53125 -4.546875 "/></g></g></g><g fill="#393536" fill-opacity="1"><g transform="translate(286.697863, 239.115722)"><g><path d="M 2.65625 -23.78125 L 12.0625 -23.78125 C 13.84375 -23.78125 15.484375 -23.476562 16.984375 -22.875 C 18.484375 -22.269531 19.785156 -21.441406 20.890625 -20.390625 C 21.992188 -19.335938 22.859375 -18.082031 23.484375 -16.625 C 24.109375 -15.175781 24.421875 -13.597656 24.421875 -11.890625 C 24.421875 -10.191406 24.109375 -8.617188 23.484375 -7.171875 C 22.859375 -5.722656 21.992188 -4.46875 20.890625 -3.40625 C 19.785156 -2.34375 18.484375 -1.507812 16.984375 -0.90625 C 15.484375 -0.300781 13.84375 0 12.0625 0 L 2.65625 0 Z M 12.109375 -4.859375 C 13.097656 -4.859375 14.003906 -5.035156 14.828125 -5.390625 C 15.660156 -5.742188 16.382812 -6.234375 17 -6.859375 C 17.613281 -7.492188 18.09375 -8.234375 18.4375 -9.078125 C 18.78125 -9.929688 18.953125 -10.867188 18.953125 -11.890625 C 18.953125 -12.910156 18.78125 -13.84375 18.4375 -14.6875 C 18.09375 -15.539062 17.613281 -16.28125 17 -16.90625 C 16.382812 -17.539062 15.660156 -18.035156 14.828125 -18.390625 C 14.003906 -18.742188 13.097656 -18.921875 12.109375 -18.921875 L 7.84375 -18.921875 L 7.84375 -4.859375 Z M 12.109375 -4.859375 "/></g></g></g><g fill="#393536" fill-opacity="1"><g transform="translate(319.001098, 239.115722)"><g><path d="M 2.65625 -23.78125 L 16.265625 -23.78125 L 16.265625 -18.921875 L 7.84375 -18.921875 L 7.84375 -14.5625 L 13.984375 -14.5625 L 13.984375 -9.6875 L 7.84375 -9.6875 L 7.84375 -4.859375 L 16.4375 -4.859375 L 16.4375 0 L 2.65625 0 Z M 2.65625 -23.78125 "/></g></g></g><g fill="#5e17eb" fill-opacity="1"><g transform="translate(123.595192, 264.771357)"><g><path d="M 3.21875 0.125 C 2.664062 0.125 2.179688 0.0234375 1.765625 -0.171875 C 1.359375 -0.378906 1.039062 -0.660156 0.8125 -1.015625 C 0.59375 -1.378906 0.484375 -1.800781 0.484375 -2.28125 L 1.4375 -2.28125 C 1.4375 -1.976562 1.503906 -1.703125 1.640625 -1.453125 C 1.773438 -1.203125 1.972656 -1.003906 2.234375 -0.859375 C 2.503906 -0.710938 2.832031 -0.640625 3.21875 -0.640625 C 3.726562 -0.640625 4.125 -0.757812 4.40625 -1 C 4.695312 -1.25 4.84375 -1.5625 4.84375 -1.9375 C 4.84375 -2.238281 4.773438 -2.476562 4.640625 -2.65625 C 4.515625 -2.84375 4.335938 -2.992188 4.109375 -3.109375 C 3.890625 -3.222656 3.632812 -3.320312 3.34375 -3.40625 C 3.0625 -3.5 2.769531 -3.597656 2.46875 -3.703125 C 1.875 -3.910156 1.4375 -4.160156 1.15625 -4.453125 C 0.875 -4.753906 0.734375 -5.148438 0.734375 -5.640625 C 0.722656 -6.046875 0.816406 -6.40625 1.015625 -6.71875 C 1.210938 -7.03125 1.488281 -7.273438 1.84375 -7.453125 C 2.207031 -7.628906 2.632812 -7.71875 3.125 -7.71875 C 3.601562 -7.71875 4.019531 -7.625 4.375 -7.4375 C 4.738281 -7.257812 5.019531 -7.007812 5.21875 -6.6875 C 5.414062 -6.375 5.519531 -6.015625 5.53125 -5.609375 L 4.578125 -5.609375 C 4.578125 -5.828125 4.519531 -6.035156 4.40625 -6.234375 C 4.300781 -6.441406 4.140625 -6.609375 3.921875 -6.734375 C 3.703125 -6.867188 3.425781 -6.9375 3.09375 -6.9375 C 2.675781 -6.945312 2.335938 -6.84375 2.078125 -6.625 C 1.816406 -6.40625 1.6875 -6.101562 1.6875 -5.71875 C 1.6875 -5.394531 1.773438 -5.144531 1.953125 -4.96875 C 2.140625 -4.800781 2.398438 -4.660156 2.734375 -4.546875 C 3.066406 -4.429688 3.445312 -4.300781 3.875 -4.15625 C 4.238281 -4.03125 4.566406 -3.878906 4.859375 -3.703125 C 5.148438 -3.535156 5.375 -3.3125 5.53125 -3.03125 C 5.695312 -2.757812 5.78125 -2.410156 5.78125 -1.984375 C 5.78125 -1.617188 5.6875 -1.273438 5.5 -0.953125 C 5.3125 -0.640625 5.023438 -0.378906 4.640625 -0.171875 C 4.265625 0.0234375 3.789062 0.125 3.21875 0.125 Z M 3.21875 0.125 "/></g></g></g><g fill="#5e17eb" fill-opacity="1"><g transform="translate(138.537419, 264.771357)"><g><path d="M 4.25 0.125 C 3.507812 0.125 2.859375 -0.0351562 2.296875 -0.359375 C 1.734375 -0.691406 1.296875 -1.15625 0.984375 -1.75 C 0.671875 -2.34375 0.515625 -3.023438 0.515625 -3.796875 C 0.515625 -4.566406 0.671875 -5.242188 0.984375 -5.828125 C 1.296875 -6.421875 1.734375 -6.882812 2.296875 -7.21875 C 2.859375 -7.550781 3.507812 -7.71875 4.25 -7.71875 C 5 -7.71875 5.65625 -7.550781 6.21875 -7.21875 C 6.78125 -6.882812 7.210938 -6.421875 7.515625 -5.828125 C 7.828125 -5.242188 7.984375 -4.566406 7.984375 -3.796875 C 7.984375 -3.023438 7.828125 -2.34375 7.515625 -1.75 C 7.210938 -1.15625 6.78125 -0.691406 6.21875 -0.359375 C 5.65625 -0.0351562 5 0.125 4.25 0.125 Z M 4.25 -0.671875 C 4.800781 -0.671875 5.289062 -0.796875 5.71875 -1.046875 C 6.144531 -1.296875 6.472656 -1.648438 6.703125 -2.109375 C 6.941406 -2.578125 7.0625 -3.140625 7.0625 -3.796875 C 7.0625 -4.441406 6.941406 -4.992188 6.703125 -5.453125 C 6.472656 -5.921875 6.144531 -6.28125 5.71875 -6.53125 C 5.289062 -6.78125 4.800781 -6.90625 4.25 -6.90625 C 3.695312 -6.90625 3.207031 -6.78125 2.78125 -6.53125 C 2.351562 -6.28125 2.019531 -5.921875 1.78125 -5.453125 C 1.550781 -4.992188 1.4375 -4.441406 1.4375 -3.796875 C 1.4375 -3.140625 1.550781 -2.578125 1.78125 -2.109375 C 2.019531 -1.648438 2.351562 -1.296875 2.78125 -1.046875 C 3.207031 -0.796875 3.695312 -0.671875 4.25 -0.671875 Z M 4.25 -0.671875 "/></g></g></g><g fill="#5e17eb" fill-opacity="1"><g transform="translate(155.712469, 264.771357)"><g><path d="M 0.796875 0 L 0.796875 -7.59375 L 1.71875 -7.59375 L 1.71875 -0.71875 L 5.25 -0.71875 L 5.25 0 Z M 0.796875 0 "/></g></g></g><g fill="#5e17eb" fill-opacity="1"><g transform="translate(170.080235, 264.771357)"><g><path d="M 3.546875 0.125 C 3.023438 0.125 2.550781 0.0234375 2.125 -0.171875 C 1.707031 -0.378906 1.367188 -0.703125 1.109375 -1.140625 C 0.859375 -1.578125 0.734375 -2.128906 0.734375 -2.796875 L 0.734375 -7.59375 L 1.640625 -7.59375 L 1.640625 -2.78125 C 1.640625 -2.050781 1.816406 -1.519531 2.171875 -1.1875 C 2.535156 -0.851562 3 -0.6875 3.5625 -0.6875 C 4.132812 -0.6875 4.59375 -0.851562 4.9375 -1.1875 C 5.289062 -1.519531 5.46875 -2.050781 5.46875 -2.78125 L 5.46875 -7.59375 L 6.375 -7.59375 L 6.375 -2.796875 C 6.375 -2.128906 6.242188 -1.578125 5.984375 -1.140625 C 5.734375 -0.703125 5.394531 -0.378906 4.96875 -0.171875 C 4.550781 0.0234375 4.078125 0.125 3.546875 0.125 Z M 3.546875 0.125 "/></g></g></g><g fill="#5e17eb" fill-opacity="1"><g transform="translate(185.867899, 264.771357)"><g><path d="M 2.578125 0 L 2.578125 -6.84375 L 0.3125 -6.84375 L 0.3125 -7.59375 L 5.765625 -7.59375 L 5.765625 -6.84375 L 3.484375 -6.84375 L 3.484375 0 Z M 2.578125 0 "/></g></g></g><g fill="#5e17eb" fill-opacity="1"><g transform="translate(200.615028, 264.771357)"><g><path d="M 0.796875 0 L 0.796875 -7.59375 L 1.71875 -7.59375 L 1.71875 0 Z M 0.796875 0 "/></g></g></g><g fill="#5e17eb" fill-opacity="1"><g transform="translate(211.806982, 264.771357)"><g><path d="M 4.25 0.125 C 3.507812 0.125 2.859375 -0.0351562 2.296875 -0.359375 C 1.734375 -0.691406 1.296875 -1.15625 0.984375 -1.75 C 0.671875 -2.34375 0.515625 -3.023438 0.515625 -3.796875 C 0.515625 -4.566406 0.671875 -5.242188 0.984375 -5.828125 C 1.296875 -6.421875 1.734375 -6.882812 2.296875 -7.21875 C 2.859375 -7.550781 3.507812 -7.71875 4.25 -7.71875 C 5 -7.71875 5.65625 -7.550781 6.21875 -7.21875 C 6.78125 -6.882812 7.210938 -6.421875 7.515625 -5.828125 C 7.828125 -5.242188 7.984375 -4.566406 7.984375 -3.796875 C 7.984375 -3.023438 7.828125 -2.34375 7.515625 -1.75 C 7.210938 -1.15625 6.78125 -0.691406 6.21875 -0.359375 C 5.65625 -0.0351562 5 0.125 4.25 0.125 Z M 4.25 -0.671875 C 4.800781 -0.671875 5.289062 -0.796875 5.71875 -1.046875 C 6.144531 -1.296875 6.472656 -1.648438 6.703125 -2.109375 C 6.941406 -2.578125 7.0625 -3.140625 7.0625 -3.796875 C 7.0625 -4.441406 6.941406 -4.992188 6.703125 -5.453125 C 6.472656 -5.921875 6.144531 -6.28125 5.71875 -6.53125 C 5.289062 -6.78125 4.800781 -6.90625 4.25 -6.90625 C 3.695312 -6.90625 3.207031 -6.78125 2.78125 -6.53125 C 2.351562 -6.28125 2.019531 -5.921875 1.78125 -5.453125 C 1.550781 -4.992188 1.4375 -4.441406 1.4375 -3.796875 C 1.4375 -3.140625 1.550781 -2.578125 1.78125 -2.109375 C 2.019531 -1.648438 2.351562 -1.296875 2.78125 -1.046875 C 3.207031 -0.796875 3.695312 -0.671875 4.25 -0.671875 Z M 4.25 -0.671875 "/></g></g></g><g fill="#5e17eb" fill-opacity="1"><g transform="translate(228.982026, 264.771357)"><g><path d="M 0.796875 0 L 0.796875 -7.59375 L 1.71875 -7.59375 L 5.765625 -1.5 L 5.765625 -7.59375 L 6.671875 -7.59375 L 6.671875 0 L 5.765625 0 L 1.71875 -6.078125 L 1.71875 0 Z M 0.796875 0 "/></g></g></g><g fill="#5e17eb" fill-opacity="1"><g transform="translate(245.127369, 264.771357)"><g><path d="M 3.21875 0.125 C 2.664062 0.125 2.179688 0.0234375 1.765625 -0.171875 C 1.359375 -0.378906 1.039062 -0.660156 0.8125 -1.015625 C 0.59375 -1.378906 0.484375 -1.800781 0.484375 -2.28125 L 1.4375 -2.28125 C 1.4375 -1.976562 1.503906 -1.703125 1.640625 -1.453125 C 1.773438 -1.203125 1.972656 -1.003906 2.234375 -0.859375 C 2.503906 -0.710938 2.832031 -0.640625 3.21875 -0.640625 C 3.726562 -0.640625 4.125 -0.757812 4.40625 -1 C 4.695312 -1.25 4.84375 -1.5625 4.84375 -1.9375 C 4.84375 -2.238281 4.773438 -2.476562 4.640625 -2.65625 C 4.515625 -2.84375 4.335938 -2.992188 4.109375 -3.109375 C 3.890625 -3.222656 3.632812 -3.320312 3.34375 -3.40625 C 3.0625 -3.5 2.769531 -3.597656 2.46875 -3.703125 C 1.875 -3.910156 1.4375 -4.160156 1.15625 -4.453125 C 0.875 -4.753906 0.734375 -5.148438 0.734375 -5.640625 C 0.722656 -6.046875 0.816406 -6.40625 1.015625 -6.71875 C 1.210938 -7.03125 1.488281 -7.273438 1.84375 -7.453125 C 2.207031 -7.628906 2.632812 -7.71875 3.125 -7.71875 C 3.601562 -7.71875 4.019531 -7.625 4.375 -7.4375 C 4.738281 -7.257812 5.019531 -7.007812 5.21875 -6.6875 C 5.414062 -6.375 5.519531 -6.015625 5.53125 -5.609375 L 4.578125 -5.609375 C 4.578125 -5.828125 4.519531 -6.035156 4.40625 -6.234375 C 4.300781 -6.441406 4.140625 -6.609375 3.921875 -6.734375 C 3.703125 -6.867188 3.425781 -6.9375 3.09375 -6.9375 C 2.675781 -6.945312 2.335938 -6.84375 2.078125 -6.625 C 1.816406 -6.40625 1.6875 -6.101562 1.6875 -5.71875 C 1.6875 -5.394531 1.773438 -5.144531 1.953125 -4.96875 C 2.140625 -4.800781 2.398438 -4.660156 2.734375 -4.546875 C 3.066406 -4.429688 3.445312 -4.300781 3.875 -4.15625 C 4.238281 -4.03125 4.566406 -3.878906 4.859375 -3.703125 C 5.148438 -3.535156 5.375 -3.3125 5.53125 -3.03125 C 5.695312 -2.757812 5.78125 -2.410156 5.78125 -1.984375 C 5.78125 -1.617188 5.6875 -1.273438 5.5 -0.953125 C 5.3125 -0.640625 5.023438 -0.378906 4.640625 -0.171875 C 4.265625 0.0234375 3.789062 0.125 3.21875 0.125 Z M 3.21875 0.125 "/></g></g></g></svg>